<svg xmlns="http://www.w3.org/2000/svg" fill="none" viewBox="0 0 14 19">
  <defs/>
  <path fill="#000" d="M7.875 5.03125V.25H.84375C.351562.25 0 .636719 0 1.09375V17.4062c0 .4922.351562.8438.84375.8438H12.6562c.4571 0 .8438-.3516.8438-.8438V5.875H8.71875c-.49219 0-.84375-.35156-.84375-.84375zm2.10938 3.76172L7.875 12.0625l2.10938 3.3047c.17582.2812-.03516.6328-.35157.6328H8.40234c-.17578 0-.3164-.0703-.38672-.2109C7.3125 14.5234 6.75 13.3633 6.75 13.3633c-.24609.5273-.35156.7031-1.30078 2.4258-.07031.1406-.21094.2461-.38672.2461H3.86719c-.35157 0-.5625-.3868-.38672-.668L5.625 12.0977 3.48047 8.79297c-.17578-.28125.03515-.63281.38672-.63281H5.0625c.17578 0 .31641.07031.38672.21093.91406 1.72271.70312 1.16016 1.30078 2.39061 0 0 .21094-.3867 1.26562-2.39061.07032-.14062.21094-.21093.38672-.21093h1.23047c.31641-.03516.52739.35156.35157.63281zM13.5 4.53906c0-.21094-.1055-.42187-.2461-.59765L9.80859.496094C9.63281.355469 9.42188.25 9.21094.25H9v4.5h4.5v-.21094z"/>
</svg>
